<svg xmlns="http://www.w3.org/2000/svg" viewBox="0 0 512 512" width="512" height="512" role="img" aria-labelledby="title">
  <title id="title">Tidefern app icon</title>
  <rect width="512" height="512" rx="112" fill="#F7F5EF"/>
  <g transform="translate(46 46) scale(0.82)">
    <path fill="#5C9C93" d="M212.0 482.8 C183.1 482.5 157.0 482.1 154.0 481.8 C146.3 481.2 123.1 476.4 118.3 474.4 C117.6 474.1 115.3 473.4 113.2 472.8 C110.7 472.1 106.4 470.2 99.5 466.7 C83.4 458.7 74.1 451.9 61.8 439.3 C54.4 431.7 51.2 427.9 46.6 421.0 C39.0 409.5 37.3 406.3 34.7 398.8 C33.9 396.6 32.6 393.2 31.8 391.2 C29.7 386.2 29.7 384.0 31.7 379.5 C33.2 376.3 33.2 376.3 33.0 370.3 C32.7 363.1 32.4 362.3 30.2 360.4 C29.2 359.6 28.4 358.5 28.2 357.9 C27.7 355.7 30.6 342.9 32.8 337.6 C35.7 330.5 39.4 323.0 42.0 318.8 C43.2 316.8 44.7 314.3 45.4 313.3 C48.8 307.3 64.7 291.1 72.6 285.5 C80.0 280.3 92.2 274.2 102.0 270.8 C104.1 270.0 107.0 269.0 108.5 268.4 C111.3 267.4 113.7 266.9 124.2 265.3 C129.7 264.5 131.5 264.4 147.0 264.4 C163.8 264.5 163.8 264.5 170.6 265.7 C178.4 267.2 190.9 270.9 196.2 273.3 C198.2 274.2 200.8 275.3 202.0 275.8 C203.2 276.3 205.7 277.5 207.6 278.6 C209.5 279.7 212.3 281.1 213.8 281.8 C218.8 283.9 225.4 287.6 228.9 290.3 C230.7 291.7 233.9 294.1 236.0 295.6 C240.3 298.7 246.4 303.8 251.2 308.4 C253.1 310.2 257.5 314.3 261.1 317.6 C267.6 323.6 281.8 338.3 287.0 344.4 C288.5 346.2 291.2 349.1 293.0 351.0 C294.7 352.9 297.7 356.1 299.6 358.2 C301.4 360.2 305.1 363.8 307.8 366.1 C310.4 368.4 315.6 373.1 319.2 376.6 C322.8 380.0 326.8 383.6 328.0 384.6 C329.2 385.6 331.6 387.7 333.4 389.2 C335.2 390.8 338.2 393.2 340.2 394.5 C342.2 395.9 344.9 397.8 346.3 398.8 C350.3 401.8 360.6 407.8 367.5 411.2 C370.9 412.9 376.1 415.4 378.8 416.8 C387.6 421.2 395.3 423.1 411.5 425.0 C423.1 426.3 434.9 426.0 442.6 424.2 C444.6 423.7 447.6 423.3 449.4 423.3 C452.6 423.2 452.6 423.2 452.7 424.3 C452.9 425.5 451.9 426.6 448.6 429.2 C447.7 429.9 446.8 430.9 446.5 431.4 C446.3 432.0 445.5 433.6 444.8 435.1 C442.9 439.3 434.1 447.8 426.4 453.0 C425.0 454.0 422.9 455.5 421.7 456.4 C420.6 457.3 417.3 459.4 414.3 461.0 C411.4 462.6 407.5 464.8 405.6 465.8 C396.9 470.7 380.3 476.3 370.2 477.8 C368.7 478.0 364.4 478.9 360.8 479.8 C350.1 482.3 347.0 482.6 328.0 483.0 C305.5 483.4 275.6 483.4 212.0 482.8 Z"/>
    <path fill="#F7F5EF" fill-opacity="1" d="M379.6 445.9 C367.2 445.1 341.8 439.5 331.5 435.5 C329.9 434.8 326.3 433.6 323.4 432.7 C317.9 430.9 312.9 428.7 308.0 425.7 C304.9 423.8 297.9 420.2 291.8 417.3 C289.8 416.3 285.6 413.9 282.6 411.9 C279.5 410.0 274.7 407.0 272.0 405.3 C269.2 403.5 264.9 400.5 262.4 398.5 C259.8 396.5 255.7 393.4 253.2 391.7 C250.7 390.0 247.5 387.7 246.2 386.6 C244.9 385.5 242.2 383.5 240.2 382.1 C234.2 378.0 226.7 372.6 224.4 370.6 C221.9 368.5 215.9 364.3 212.0 362.0 C210.6 361.2 207.0 358.9 204.0 357.0 C195.3 351.4 190.0 348.8 177.8 344.0 C175.4 343.0 172.2 341.7 170.8 341.1 C167.9 339.8 156.4 335.8 152.6 334.9 C151.3 334.5 145.6 333.6 140.0 332.8 C130.0 331.4 129.6 331.3 120.8 331.5 C107.8 331.8 94.0 334.1 87.0 337.0 C85.0 337.8 82.6 338.7 81.6 339.0 C80.6 339.3 76.8 340.8 73.0 342.5 C66.0 345.6 59.5 349.6 53.1 354.7 C51.5 356.1 49.0 358.0 47.8 359.0 C46.5 360.0 44.7 361.8 43.7 363.0 C35.9 372.8 34.3 373.9 33.2 370.2 C32.5 367.9 32.9 360.7 33.8 359.0 C34.8 357.1 45.5 346.5 49.4 343.5 C51.2 342.2 53.9 340.3 55.4 339.4 C56.9 338.5 60.5 336.2 63.2 334.4 C69.7 330.0 79.5 325.6 86.8 323.8 C88.7 323.3 91.6 322.5 93.3 322.0 C95.1 321.4 99.6 320.4 103.3 319.7 C110.0 318.4 110.5 318.4 121.0 318.4 C140.4 318.5 158.6 321.4 172.1 326.6 C174.4 327.4 178.5 329.0 181.4 330.1 C187.5 332.5 194.2 335.7 199.6 338.8 C201.7 340.0 206.2 342.5 209.6 344.5 C215.7 348.0 223.7 353.1 228.0 356.4 C229.2 357.3 233.3 360.2 237.0 362.8 C240.7 365.4 245.8 369.1 248.2 371.0 C253.1 374.7 263.7 382.6 269.4 386.6 C271.4 388.0 274.1 390.0 275.4 391.0 C278.7 393.6 292.6 402.8 299.7 407.1 C306.6 411.3 324.1 420.1 332.4 423.5 C351.0 431.1 358.8 433.2 381.1 436.6 C387.9 437.6 391.2 437.9 402.1 438.2 C415.9 438.7 418.0 438.9 418.0 440.2 C418.0 441.3 417.5 441.5 406.1 443.8 C396.5 445.8 396.0 445.9 389.0 446.0 C385.0 446.1 380.8 446.0 379.6 445.9 Z"/>
    <path fill="#738A74" d="M408.0 410.8 C406.6 410.5 402.8 410.0 399.6 409.6 C390.5 408.6 387.9 407.8 381.0 404.2 C377.7 402.5 373.1 399.9 370.9 398.5 C368.6 397.0 365.6 395.5 364.2 395.0 C359.5 393.4 354.5 389.3 353.5 386.1 C352.2 381.7 356.5 377.0 366.2 372.2 C380.1 365.3 380.9 365.0 387.4 364.2 C395.6 363.2 409.1 362.8 414.2 363.4 C420.5 364.2 436.4 369.6 443.6 373.5 C447.1 375.4 451.6 376.6 457.2 377.0 C462.7 377.5 464.4 377.9 465.4 379.0 C467.7 381.5 464.8 385.5 453.6 395.8 C448.8 400.2 447.6 400.9 442.2 403.1 C439.8 404.1 435.5 405.9 432.7 407.1 C424.2 410.9 423.4 411.1 416.6 411.2 C412.6 411.3 409.7 411.2 408.0 410.8 Z M337.4 379.6 C336.5 379.0 335.0 377.8 334.0 376.8 C333.0 375.9 330.9 374.3 329.4 373.3 C327.9 372.3 325.8 370.6 324.7 369.5 C322.0 366.7 317.2 360.5 317.0 359.5 C316.2 356.8 318.8 353.1 323.3 350.5 C326.6 348.6 327.8 347.2 330.5 342.8 C331.7 340.8 333.9 337.4 335.4 335.2 C338.5 330.7 342.4 324.1 344.2 320.2 C345.8 316.6 347.7 313.7 350.6 310.2 C354.1 306.0 354.9 304.6 356.6 299.8 C357.5 297.5 359.4 293.2 360.9 290.3 C362.4 287.4 364.5 282.4 365.5 279.3 C366.6 276.1 368.5 271.2 369.7 268.3 C372.0 262.8 372.8 260.1 375.4 249.2 C376.2 245.7 377.4 240.9 378.1 238.6 C378.8 235.8 379.4 232.7 379.6 229.4 C379.8 226.6 380.3 222.3 380.6 219.8 C382.1 208.5 382.1 189.2 380.6 177.0 C379.0 164.3 378.5 161.9 376.4 157.8 C375.3 155.5 374.2 152.7 373.8 150.9 C373.4 149.1 372.7 146.5 372.2 144.9 C371.4 142.8 371.2 141.2 371.2 138.6 C371.2 134.8 370.6 133.6 367.8 131.0 C367.2 130.4 365.3 128.2 363.7 126.0 C362.0 123.8 359.6 120.8 358.4 119.3 C357.1 117.8 355.5 115.4 354.7 113.9 C352.9 110.5 352.3 110.0 349.5 109.0 C346.8 108.1 344.8 106.8 340.8 103.2 C338.3 101.0 336.5 99.9 329.8 96.6 C320.2 91.9 317.5 90.9 310.4 89.4 C307.4 88.8 303.7 88.0 302.2 87.6 C297.5 86.6 290.5 86.4 283.4 87.2 C279.9 87.6 275.1 88.0 272.7 88.2 C268.8 88.5 268.0 88.7 264.5 90.3 C262.3 91.3 260.1 92.2 259.6 92.4 C257.2 93.1 237.2 102.9 235.9 104.1 C235.5 104.4 234.4 106.3 233.4 108.3 C232.0 110.9 230.6 112.9 228.4 115.3 C225.1 118.7 224.3 120.2 220.2 129.5 C219.2 131.7 217.8 134.5 217.0 135.7 C215.0 139.0 214.9 139.6 213.8 147.1 C212.9 153.2 212.8 154.6 213.0 163.1 C213.2 168.2 213.5 173.0 213.7 173.7 C213.9 174.5 215.0 175.8 216.5 177.1 C217.8 178.3 219.7 180.5 220.7 182.2 C224.3 187.9 233.7 195.7 238.6 197.0 C239.7 197.3 242.3 198.0 244.4 198.6 C253.2 201.2 256.4 201.5 262.6 200.2 C270.4 198.6 281.4 191.4 285.5 185.2 C286.2 184.2 287.4 181.4 288.2 179.0 C289.5 175.0 289.7 174.0 289.7 170.3 C289.8 163.3 287.2 155.0 284.3 153.1 C281.0 150.9 269.3 147.8 264.2 147.8 C262.2 147.8 260.8 146.9 260.8 145.6 C260.8 143.7 266.3 137.1 268.9 135.8 C270.5 135.1 271.4 135.0 279.2 135.0 C287.8 135.0 287.9 135.0 291.1 136.2 C298.6 138.9 302.4 142.5 304.4 148.8 C304.7 149.7 305.5 151.5 306.2 152.8 C308.9 157.7 309.5 160.6 309.7 170.6 C309.9 177.7 309.9 180.1 309.4 182.0 C308.7 185.1 302.9 196.7 300.9 199.0 C295.2 205.7 283.1 211.4 269.8 213.6 C265.4 214.4 262.8 215.6 262.0 217.2 C261.5 218.2 261.6 218.7 262.2 221.1 C264.2 229.1 263.6 232.6 260.3 232.6 C258.5 232.6 246.3 227.1 243.7 225.1 C241.4 223.4 236.4 214.9 236.4 212.8 C236.4 210.7 234.5 207.9 231.7 206.0 C230.2 204.9 228.2 203.4 227.3 202.7 C223.7 200.0 222.4 201.1 221.9 207.5 C221.4 214.5 220.7 216.2 215.9 223.3 C212.8 227.9 211.6 229.0 209.9 229.0 C208.4 229.0 207.3 227.9 205.1 223.8 C201.3 216.7 200.3 213.4 200.1 207.9 C199.7 196.5 202.4 190.2 209.0 187.0 C213.0 185.1 213.3 183.3 210.5 178.5 C208.6 175.3 208.0 172.5 208.0 167.3 C208.0 165.4 207.7 162.0 207.4 159.9 C206.1 152.2 208.1 140.0 212.4 129.1 C213.9 125.4 213.9 123.7 212.6 122.4 C211.0 120.8 209.3 121.0 207.3 123.2 C204.9 125.8 203.7 126.2 195.9 126.7 C183.2 127.5 176.1 125.3 176.3 120.6 C176.3 117.6 180.0 112.5 184.3 109.3 C185.5 108.4 187.6 106.7 189.1 105.3 C195.0 100.0 198.4 98.9 211.0 98.7 C216.5 98.6 222.9 98.7 226.8 99.0 C234.4 99.6 234.1 99.7 238.4 96.2 C242.7 92.7 250.5 89.4 254.3 89.4 C257.3 89.4 259.3 87.6 258.6 85.5 C258.2 84.2 256.8 83.8 250.6 82.8 C241.7 81.4 238.7 79.6 235.2 73.6 C233.7 71.1 233.0 70.3 230.9 69.0 C228.1 67.2 226.8 65.5 226.8 63.3 C226.8 59.6 228.6 58.3 236.0 56.6 C243.1 54.9 246.4 54.8 253.9 55.7 C260.1 56.6 261.5 57.0 264.2 59.2 C265.1 59.9 267.1 61.3 268.7 62.4 C272.2 64.7 276.4 69.6 277.6 72.9 C279.0 76.5 279.6 77.4 281.1 78.1 C283.1 78.9 291.7 79.6 299.2 79.5 C306.4 79.4 312.4 80.1 316.8 81.6 C318.4 82.2 321.2 83.0 323.0 83.4 C326.5 84.3 329.1 85.5 332.5 87.9 C333.7 88.7 336.2 89.9 337.9 90.5 C344.5 92.9 349.4 96.8 351.9 101.8 C353.5 105.0 353.6 105.1 359.2 107.5 C360.4 108.1 363.2 109.9 365.5 111.6 C369.2 114.3 369.9 115.0 372.2 118.5 C373.6 120.7 376.0 124.2 377.6 126.2 C381.0 130.8 384.1 136.9 388.7 148.2 C389.4 150.1 391.4 154.8 393.0 158.6 C395.0 163.4 396.2 166.9 396.8 169.8 C397.3 172.1 398.2 175.5 398.9 177.4 C400.3 181.7 400.7 185.1 401.3 197.3 C402.1 216.1 402.1 227.2 401.4 232.3 C401.0 234.8 400.5 238.8 400.2 241.2 C399.9 243.6 399.5 246.2 399.2 246.9 C399.0 247.7 398.5 250.4 398.2 252.9 C397.7 256.1 397.1 258.9 396.0 261.8 C393.6 268.1 392.1 274.0 391.2 280.7 C391.0 282.3 390.3 285.4 389.6 287.6 C388.9 289.7 388.1 293.0 387.7 294.9 C387.4 296.9 386.1 301.2 384.8 304.7 C382.0 312.0 381.8 312.5 379.6 315.6 C378.7 316.9 377.8 318.5 377.6 319.3 C377.3 320.1 376.3 322.6 375.3 324.7 C374.4 326.8 372.9 330.6 372.0 333.1 C369.5 340.4 367.8 343.5 360.8 353.6 C358.7 356.7 356.5 360.0 356.0 361.0 C353.9 365.1 346.0 376.5 343.1 379.5 C341.7 381.0 339.5 381.0 337.4 379.6 Z M407.2 345.4 C405.0 345.2 402.7 344.9 402.0 344.7 C399.6 343.9 392.8 343.0 389.1 343.0 C379.1 343.0 377.7 340.8 381.9 332.1 C386.5 322.6 393.7 312.4 401.7 303.8 C406.6 298.6 407.8 297.8 412.9 296.2 C415.2 295.5 418.9 294.1 421.2 293.0 C425.6 291.0 426.7 290.7 435.7 289.8 C437.9 289.6 441.1 288.9 443.2 288.2 C446.5 287.1 447.6 286.9 454.5 286.6 C460.8 286.3 462.8 286.1 465.5 285.2 C470.9 283.6 478.2 282.7 479.5 283.4 C481.1 284.3 481.6 285.6 481.6 289.0 C481.6 292.9 480.8 296.3 478.9 300.4 C477.2 303.8 471.9 312.6 469.8 315.2 C469.1 316.1 467.7 318.1 466.7 319.6 C465.7 321.1 463.1 324.3 460.8 326.7 C456.9 330.7 456.1 331.3 450.0 334.9 C440.7 340.3 438.9 341.2 432.8 343.0 C425.1 345.2 415.7 346.1 407.2 345.4 Z M408.5 269.4 C404.5 268.5 403.8 267.5 404.1 262.3 C404.4 258.0 404.7 256.7 407.3 246.6 C410.0 236.4 411.4 232.8 414.7 228.4 C415.7 227.1 417.1 224.8 417.8 223.4 C418.5 222.0 420.1 219.7 421.3 218.4 C422.4 217.0 424.1 215.1 424.9 214.1 C427.0 211.5 434.3 206.9 442.4 202.8 C449.0 199.6 450.7 199.0 457.4 197.8 C459.3 197.5 460.3 197.0 462.8 195.0 C464.9 193.5 466.9 192.4 468.7 191.8 C470.2 191.3 473.0 190.2 475.0 189.3 C479.2 187.4 480.8 187.2 482.1 188.6 C484.1 190.4 484.4 193.7 483.4 205.2 C482.4 216.9 480.7 222.7 476.9 228.4 C476.0 229.7 474.7 232.4 473.8 234.4 C471.6 239.9 470.0 242.0 460.6 251.8 C457.9 254.6 453.3 257.4 446.9 260.0 C444.1 261.2 440.4 262.7 438.8 263.5 C432.1 266.8 413.3 270.4 408.5 269.4 Z M407.3 186.4 C405.6 184.5 404.6 181.4 404.0 176.8 C403.8 174.6 403.1 170.7 402.6 168.1 C401.5 162.7 401.3 158.9 402.2 155.1 C402.5 153.6 402.9 151.0 403.0 149.2 C403.4 143.2 404.6 139.9 407.8 135.0 C408.7 133.6 410.2 131.1 411.1 129.6 C413.3 125.8 417.0 121.6 420.4 119.0 C423.5 116.7 427.7 112.2 431.4 107.2 C433.9 103.9 435.0 103.2 436.5 103.8 C438.3 104.5 440.8 108.2 442.0 112.0 C442.3 112.9 443.4 115.6 444.5 118.0 C446.6 122.4 446.6 122.4 447.0 128.4 C447.5 136.1 447.5 137.2 446.9 144.8 C446.0 155.6 443.8 160.9 437.4 167.2 C435.2 169.4 432.8 172.1 432.2 173.2 C430.7 175.9 429.9 176.8 426.6 179.0 C425.1 180.1 423.3 181.5 422.6 182.2 C421.2 183.7 419.7 184.5 414.8 186.4 C409.9 188.2 408.8 188.2 407.3 186.4 Z M178.4 183.9 C176.1 182.7 175.4 180.8 175.4 175.4 C175.4 170.5 175.8 168.7 178.0 164.0 C182.1 155.3 195.0 146.6 199.4 149.6 C201.4 150.9 201.7 152.3 201.5 162.0 C201.4 169.3 201.3 171.1 200.7 172.4 C199.6 174.8 191.9 182.4 189.5 183.4 C186.6 184.7 180.4 184.9 178.4 183.9 Z M381.0 120.9 C378.5 118.9 373.0 112.1 367.9 104.6 C362.3 96.3 359.1 86.6 359.8 80.6 C360.1 78.0 364.2 64.2 365.2 62.2 C365.6 61.4 366.9 59.7 368.1 58.3 C369.3 56.9 371.2 54.1 372.2 52.1 C375.1 46.9 376.7 46.0 380.0 48.1 C382.2 49.5 387.9 55.5 390.0 58.6 C393.5 63.9 397.4 76.3 398.0 83.9 C398.6 91.6 398.1 94.7 395.2 101.4 C391.3 110.4 386.4 120.1 385.3 121.0 C384.0 122.0 382.4 122.0 381.0 120.9 Z M324.4 79.0 C316.3 76.4 313.0 74.3 308.0 69.1 C298.3 58.9 296.5 55.5 294.4 43.6 C293.9 41.0 293.4 38.1 293.2 37.2 C291.0 27.9 297.2 26.1 309.5 32.4 C312.2 33.8 315.4 35.7 316.7 36.5 C318.0 37.4 320.0 38.6 321.1 39.2 C326.8 42.3 329.1 45.9 333.2 58.2 C335.6 65.4 335.0 76.7 332.1 79.0 C330.8 80.0 327.5 80.1 324.4 79.0 Z"/>
  </g>
</svg>
